<svg width="21" height="21" viewBox="0 0 21 21" fill="none" xmlns="http://www.w3.org/2000/svg">
<path d="M11.9775 20.145H8.21984C4.67734 20.145 2.90562 20.145 1.80557 18.9766C0.705529 17.8082 0.70459 15.9289 0.70459 12.1695V10.1756C0.70459 6.41609 0.70459 4.53585 1.80557 3.36843C2.90656 2.201 4.67734 2.20001 8.21984 2.20001H11.9775C15.52 2.20001 17.2917 2.20001 18.3917 3.36843C19.4918 4.53684 19.4927 6.41609 19.4927 10.1756V12.1695C19.4927 15.9289 19.4927 17.8092 18.3917 18.9766C17.7783 19.6286 16.9563 19.9167 15.7351 20.0433M5.40162 2.20001V0.70459M14.7957 2.20001V0.70459M19.023 7.18473H8.92439M0.70459 7.18473H4.34479" stroke="black" stroke-width="1.40911" stroke-linecap="round"/>
<path d="M5.40186 14.7612C5.48048 14.7612 5.56327 14.7945 5.63037 14.8657C5.69852 14.9381 5.74259 15.043 5.74268 15.1597C5.74268 15.2765 5.69862 15.3822 5.63037 15.4546C5.56329 15.5257 5.48045 15.5591 5.40186 15.5591C5.32327 15.5591 5.24043 15.5257 5.17334 15.4546C5.10509 15.3822 5.06104 15.2765 5.06104 15.1597C5.06112 15.043 5.10516 14.9381 5.17334 14.8657C5.24045 14.7945 5.32321 14.7612 5.40186 14.7612ZM10.0991 14.7612C10.1777 14.7613 10.2606 14.7946 10.3276 14.8657C10.3957 14.9381 10.4399 15.043 10.4399 15.1597C10.4399 15.2765 10.3959 15.3822 10.3276 15.4546C10.2606 15.5257 10.1777 15.559 10.0991 15.5591C10.0205 15.5591 9.93674 15.5258 9.86963 15.4546C9.8015 15.3822 9.75732 15.2764 9.75732 15.1597C9.75741 15.0432 9.80165 14.9381 9.86963 14.8657C9.93674 14.7945 10.0205 14.7612 10.0991 14.7612ZM14.7954 14.7612C14.8741 14.7612 14.9578 14.7945 15.0249 14.8657C15.0929 14.9381 15.1371 15.0431 15.1372 15.1597C15.1372 15.2765 15.0931 15.3822 15.0249 15.4546C14.9578 15.5258 14.8741 15.5591 14.7954 15.5591C14.7169 15.559 14.6339 15.5257 14.5669 15.4546C14.4987 15.3822 14.4546 15.2765 14.4546 15.1597C14.4547 15.0431 14.4989 14.9381 14.5669 14.8657C14.6339 14.7946 14.7169 14.7614 14.7954 14.7612ZM5.40186 10.7739C5.4804 10.7739 5.56331 10.8064 5.63037 10.8774C5.69862 10.9499 5.74268 11.0555 5.74268 11.1724C5.74264 11.2892 5.6986 11.3949 5.63037 11.4673C5.56333 11.5383 5.48035 11.5708 5.40186 11.5708C5.32336 11.5708 5.24039 11.5382 5.17334 11.4673C5.10512 11.3949 5.06107 11.2892 5.06104 11.1724C5.06104 11.0555 5.10509 10.9499 5.17334 10.8774C5.24041 10.8064 5.32331 10.7739 5.40186 10.7739ZM10.0991 10.7739C10.1776 10.774 10.2606 10.8064 10.3276 10.8774C10.3959 10.9499 10.4399 11.0555 10.4399 11.1724C10.4399 11.2892 10.3959 11.3949 10.3276 11.4673C10.2606 11.5383 10.1776 11.5707 10.0991 11.5708C10.0205 11.5708 9.93674 11.5385 9.86963 11.4673C9.8014 11.3949 9.75736 11.2892 9.75732 11.1724C9.75732 11.0556 9.80144 10.9499 9.86963 10.8774C9.93674 10.8062 10.0205 10.7739 10.0991 10.7739ZM14.7954 10.7739C14.8741 10.7739 14.9578 10.8062 15.0249 10.8774C15.0931 10.9499 15.1372 11.0555 15.1372 11.1724C15.1372 11.2892 15.0931 11.3949 15.0249 11.4673C14.9578 11.5384 14.874 11.5708 14.7954 11.5708C14.717 11.5707 14.6339 11.5383 14.5669 11.4673C14.4987 11.3949 14.4546 11.2892 14.4546 11.1724C14.4546 11.0555 14.4986 10.9499 14.5669 10.8774C14.6339 10.8064 14.7169 10.7741 14.7954 10.7739Z" fill="#424242" stroke="black" stroke-width="1.19633"/>
</svg>
