<svg width="22" height="20" viewBox="0 0 22 20" fill="none" xmlns="http://www.w3.org/2000/svg">
<path d="M10.6001 13.6001C12.257 13.6001 13.6001 12.257 13.6001 10.6001C13.6001 8.94324 12.257 7.6001 10.6001 7.6001C8.94324 7.6001 7.6001 8.94324 7.6001 10.6001C7.6001 12.257 8.94324 13.6001 10.6001 13.6001Z" stroke="black" stroke-width="1.2"/>
<path d="M0.600098 10.9641C0.600098 7.89914 0.600098 6.36714 1.3491 5.26714C1.67466 4.78914 2.09127 4.38 2.5751 4.06314C3.2951 3.59014 4.1971 3.42114 5.5781 3.36114C6.2371 3.36114 6.8041 2.87114 6.9331 2.23614C7.03168 1.77101 7.28783 1.35418 7.65825 1.0561C8.02867 0.75801 8.49064 0.596953 8.9661 0.600144H12.2341C13.2221 0.600144 14.0731 1.28514 14.2671 2.23614C14.3961 2.87114 14.9631 3.36114 15.6221 3.36114C17.0021 3.42114 17.9041 3.59114 18.6251 4.06314C19.1101 4.38114 19.5271 4.79014 19.8511 5.26714C20.6001 6.36714 20.6001 7.89914 20.6001 10.9641C20.6001 14.0291 20.6001 15.5601 19.8511 16.6611C19.5255 17.1392 19.1089 17.5483 18.6251 17.8651C17.5041 18.6001 15.9431 18.6001 12.8221 18.6001H8.3781C5.2571 18.6001 3.6961 18.6001 2.5751 17.8651C2.09154 17.5479 1.67527 17.1384 1.3501 16.6601C1.13284 16.3365 0.97284 15.978 0.877098 15.6001M17.6001 7.60014H16.6001" stroke="black" stroke-width="1.2" stroke-linecap="round"/>
</svg>
