<svg width="23" height="23" viewBox="0 0 23 23" fill="none" xmlns="http://www.w3.org/2000/svg">
<path d="M12.4632 20.1328H20.1328M20.2996 6.53065C20.5506 6.27973 20.7497 5.98184 20.8856 5.65398C21.0214 5.32611 21.0914 4.9747 21.0914 4.61981C21.0915 4.26491 21.0216 3.91349 20.8858 3.58559C20.7501 3.25769 20.551 2.95975 20.3001 2.70877C20.0492 2.45779 19.7513 2.25869 19.4235 2.12284C19.0956 1.98698 18.7442 1.91704 18.3893 1.91699C18.0344 1.91695 17.683 1.98681 17.3551 2.12258C17.0272 2.25835 16.7292 2.45737 16.4782 2.70829L3.68335 15.5061C3.46076 15.728 3.29615 16.0013 3.204 16.3018L1.93755 20.4741C1.91277 20.557 1.9109 20.6451 1.93213 20.7289C1.95337 20.8128 1.99691 20.8894 2.05815 20.9506C2.11939 21.0117 2.19604 21.0551 2.27996 21.0762C2.36388 21.0973 2.45195 21.0953 2.53482 21.0704L6.70807 19.8049C7.00831 19.7136 7.28154 19.55 7.5038 19.3284L20.2996 6.53065Z" stroke="#424242" stroke-opacity="0.8" stroke-width="1.2" stroke-linecap="round" stroke-linejoin="round"/>
</svg>
