<svg width="19" height="20" viewBox="0 0 19 20" fill="none" xmlns="http://www.w3.org/2000/svg">
<path d="M9.28968 12.5413C10.7983 12.5413 12.0213 11.3183 12.0213 9.8097C12.0213 8.30109 10.7983 7.07812 9.28968 7.07812C7.78107 7.07812 6.55811 8.30109 6.55811 9.8097C6.55811 11.3183 7.78107 12.5413 9.28968 12.5413Z" stroke="black" stroke-width="1.40911"/>
<path d="M10.8963 0.84299C10.5621 0.70459 10.1378 0.70459 9.28919 0.70459C8.44058 0.70459 8.01627 0.70459 7.68211 0.84299C7.46102 0.934509 7.26013 1.0687 7.09093 1.23791C6.92173 1.40711 6.78753 1.60799 6.69601 1.82909C6.61224 2.03213 6.57855 2.26978 6.56581 2.61487C6.55988 2.86429 6.49078 3.10813 6.36498 3.32358C6.23918 3.53903 6.06079 3.71906 5.84649 3.84681C5.6287 3.96861 5.38357 4.03317 5.13403 4.03444C4.8845 4.03572 4.63872 3.97367 4.4197 3.85409C4.11376 3.69202 3.89251 3.60279 3.67307 3.57365C3.19442 3.51071 2.71037 3.6404 2.32731 3.93422C2.04141 4.15548 1.82835 4.52242 1.40404 5.25721C0.979737 5.99201 0.766674 6.35895 0.720237 6.71861C0.688947 6.95575 0.704685 7.19674 0.766552 7.42781C0.82842 7.65887 0.935204 7.87549 1.0808 8.06527C1.21556 8.24009 1.40404 8.38669 1.69632 8.57061C2.127 8.84104 2.4038 9.30176 2.4038 9.80984C2.4038 10.3179 2.127 10.7786 1.69632 11.0482C1.40404 11.233 1.21465 11.3796 1.0808 11.5544C0.935204 11.7442 0.82842 11.9608 0.766552 12.1919C0.704685 12.4229 0.688947 12.6639 0.720237 12.9011C0.767584 13.2598 0.979737 13.6277 1.40313 14.3625C1.82835 15.0973 2.0405 15.4642 2.32731 15.6855C2.5171 15.8311 2.73371 15.9378 2.96478 15.9997C3.19584 16.0616 3.43683 16.0773 3.67398 16.046C3.89251 16.0169 4.11376 15.9277 4.4197 15.7656C4.63872 15.646 4.8845 15.584 5.13403 15.5852C5.38357 15.5865 5.6287 15.6511 5.84649 15.7729C6.28628 16.0278 6.5476 16.4967 6.56581 17.0048C6.57855 17.3508 6.61133 17.5875 6.69601 17.7906C6.78753 18.0117 6.92173 18.2126 7.09093 18.3818C7.26013 18.551 7.46102 18.6852 7.68211 18.7767C8.01627 18.9151 8.44058 18.9151 9.28919 18.9151C10.1378 18.9151 10.5621 18.9151 10.8963 18.7767C11.1174 18.6852 11.3182 18.551 11.4874 18.3818C11.6566 18.2126 11.7908 18.0117 11.8824 17.7906C11.9661 17.5875 11.9998 17.3508 12.0126 17.0048C12.0308 16.4967 12.2921 16.0269 12.7319 15.7729C12.9497 15.6511 13.1948 15.5865 13.4443 15.5852C13.6939 15.584 13.9396 15.646 14.1587 15.7656C14.4646 15.9277 14.6859 16.0169 14.9044 16.046C15.1415 16.0773 15.3825 16.0616 15.6136 15.9997C15.8447 15.9378 16.0613 15.8311 16.2511 15.6855C16.5379 15.4651 16.75 15.0973 17.1743 14.3625C17.5986 13.6277 17.8117 13.2607 17.8581 12.9011C17.8894 12.6639 17.8737 12.4229 17.8118 12.1919C17.75 11.9608 17.6432 11.7442 17.4976 11.5544C17.3628 11.3796 17.1743 11.233 16.8821 11.0491C16.6689 10.9192 16.4922 10.7374 16.3685 10.5207C16.2448 10.304 16.178 10.0594 16.1746 9.80984C16.1746 9.30176 16.4514 8.84104 16.8821 8.57152C17.1743 8.38669 17.3637 8.24009 17.4976 8.06527C17.6432 7.87549 17.75 7.65887 17.8118 7.42781C17.8737 7.19674 17.8894 6.95575 17.8581 6.71861C17.8108 6.35986 17.5986 5.99201 17.1752 5.25721C16.75 4.52242 16.5379 4.15548 16.2511 3.93422C16.0613 3.78862 15.8447 3.68184 15.6136 3.61997C15.3825 3.5581 15.1415 3.54236 14.9044 3.57365C14.6859 3.60279 14.4646 3.69202 14.1578 3.85409C13.9389 3.9735 13.6932 4.03547 13.4439 4.03419C13.1945 4.03292 12.9496 3.96845 12.7319 3.84681C12.5176 3.71906 12.3392 3.53903 12.2134 3.32358C12.0876 3.10813 12.0185 2.86429 12.0126 2.61487C11.9998 2.26887 11.967 2.03213 11.8824 1.82909C11.7908 1.60799 11.6566 1.40711 11.4874 1.23791C11.3182 1.0687 11.1174 0.934509 10.8963 0.84299Z" stroke="black" stroke-width="1.40911"/>
</svg>
